<?xml version="1.0" encoding="utf-8"?>
<!-- Generator: Adobe Illustrator 22.1.0, SVG Export Plug-In . SVG Version: 6.00 Build 0)  -->
<svg version="1.1" id="Calque_1" xmlns="http://www.w3.org/2000/svg" xmlns:xlink="http://www.w3.org/1999/xlink" x="0px" y="0px"
	 viewBox="0 0 754 424" style="enable-background:new 0 0 754 424;" xml:space="preserve">
<style type="text/css">
	.st0{fill:#000000;}
</style>
<g>
	<path class="st0" d="M282,103.2l20.8,7.6v13.8L282,117v28.3l26.2,9.5v13.8l-41.3-15V57l41.3,15v13.8L282,76.3V103.2z"/>
	<path class="st0" d="M315.6,98c0-7.8,1.9-13.1,5.6-16c3.7-2.8,9.3-2.9,16.7-0.2c7.4,2.7,13,6.8,16.7,12.4c3.7,5.5,5.6,12.2,5.6,20
		v3l-14.3-5.2v-4c0-3.5-0.7-6.2-2-8.1c-1.3-1.9-3.2-3.3-5.6-4.2c-2.4-0.9-4.3-0.8-5.6,0.1c-1.3,0.9-2,3.2-2,6.6
		c0,3.3,0.7,6.5,2.2,9.6c1.5,3.1,3.3,6.1,5.5,9.2c2.2,3.1,4.6,6.2,7.1,9.3c2.5,3.2,4.9,6.5,7.1,10c2.2,3.5,4,7.2,5.5,11.1
		s2.2,8.2,2.2,12.8c0,7.8-1.9,13.1-5.7,15.9c-3.8,2.8-9.4,2.8-16.9,0.1c-7.4-2.7-13.1-6.9-16.9-12.4s-5.7-12.3-5.7-20.1v-5.9
		l14.3,5.2v6.9c0,3.5,0.7,6.2,2.1,8.1c1.4,1.9,3.3,3.3,5.7,4.2c2.4,0.9,4.3,0.9,5.7,0c1.4-0.9,2.1-3,2.1-6.5c0-3.3-0.7-6.5-2.2-9.6
		c-1.5-3.1-3.3-6.1-5.5-9.2c-2.2-3.1-4.6-6.2-7.1-9.3s-4.9-6.5-7.1-10c-2.2-3.5-4-7.2-5.5-11.1C316.3,106.8,315.6,102.6,315.6,98z"
		/>
	<path class="st0" d="M413,170.8v12.8c0,7.8-1.9,13.1-5.7,15.9c-3.8,2.8-9.4,2.8-16.9,0.1c-7.4-2.7-13.1-6.9-16.9-12.4
		s-5.7-12.3-5.7-20.1V117c0-7.8,1.9-13.1,5.7-15.9s9.4-2.8,16.9-0.1s13.1,6.8,16.9,12.4c3.8,5.6,5.7,12.3,5.7,20.1v9.4l-14.3-5.2
		v-10.3c0-3.5-0.7-6.2-2.1-8.2c-1.4-1.9-3.3-3.3-5.7-4.2c-2.4-0.9-4.3-0.8-5.7,0.1c-1.4,0.9-2.1,3.1-2.1,6.6v52.1
		c0,3.5,0.7,6.2,2.1,8.1s3.3,3.3,5.7,4.2c2.4,0.9,4.3,0.9,5.7,0c1.4-0.9,2.1-3,2.1-6.5v-13.8L413,170.8z"/>
	<path class="st0" d="M471.3,228l-15.3-5.6l-2.6-18.5l-18.6-6.8l-2.6,16.6l-13.9-5.1l15.4-90.9l22.2,8.1L471.3,228z M436.7,184.8
		l14.6,5.3l-7.3-51.4L436.7,184.8z"/>
	<path class="st0" d="M500.7,142.2c7.6,2.8,13.3,6.9,17,12.3c3.7,5.4,5.6,12,5.6,19.8v12.5c0,7.8-1.9,13.1-5.6,15.7
		c-3.7,2.7-9.4,2.6-17-0.1l-7.2-2.6V236l-15.2-5.5V134L500.7,142.2z M493.5,153.3V186l7.2,2.6c2.4,0.9,4.2,0.9,5.5,0.1
		c1.3-0.8,1.9-3,1.9-6.5v-14.5c0-3.5-0.6-6.1-1.9-7.9c-1.3-1.8-3.1-3.1-5.5-3.9L493.5,153.3z"/>
	<path class="st0" d="M546.2,199.4L567,207v13.8l-20.8-7.6v28.3l26.2,9.5v13.8l-41.3-15v-96.5l41.3,15V182l-26.2-9.5V199.4z"/>
	<path class="st0" d="M613.4,279.7c-0.2-0.7-0.4-1.4-0.6-2c-0.2-0.6-0.3-1.4-0.5-2.2c-0.1-0.9-0.2-2-0.3-3.3c0-1.3-0.1-2.9-0.1-4.8
		v-15.2c0-4.5-0.8-8-2.3-10.4c-1.6-2.4-4.1-4.2-7.6-5.5l-5.2-1.9v39.3l-15.2-5.5v-96.5l22.9,8.3c7.9,2.9,13.6,6.8,17.2,11.8
		c3.5,5,5.3,11.2,5.3,18.6v7.6c0,9.9-3.3,15.2-9.9,16c3.9,3,6.5,6.5,7.9,10.5c1.4,4.1,2.1,8.6,2.1,13.7V273c0,2.4,0.1,4.5,0.3,6.4
		c0.2,1.9,0.6,3.8,1.4,5.9L613.4,279.7z M596.9,191v29.6l5.9,2.2c2.8,1,5.1,1.1,6.7,0.2c1.6-0.9,2.4-3.3,2.4-7.1v-9.5
		c0-3.5-0.6-6.2-1.9-8.3c-1.2-2-3.2-3.5-5.9-4.5L596.9,191z"/>
	<path class="st0" d="M635.2,214.3c0-7.8,1.9-13.1,5.6-16s9.3-2.9,16.7-0.2c7.4,2.7,13,6.8,16.7,12.4c3.7,5.5,5.6,12.2,5.6,20v3
		l-14.3-5.2v-4c0-3.5-0.7-6.2-2-8.1c-1.3-1.9-3.2-3.3-5.6-4.2c-2.4-0.9-4.3-0.8-5.6,0.1c-1.3,0.9-2,3.2-2,6.6c0,3.3,0.7,6.5,2.2,9.6
		c1.5,3.1,3.3,6.1,5.5,9.2c2.2,3.1,4.6,6.2,7.1,9.3c2.5,3.2,4.9,6.5,7.1,10c2.2,3.5,4,7.2,5.5,11.1c1.5,3.9,2.2,8.2,2.2,12.8
		c0,7.8-1.9,13.1-5.7,15.9c-3.8,2.8-9.4,2.8-16.9,0.1c-7.4-2.7-13.1-6.9-16.9-12.4s-5.7-12.3-5.7-20.1v-5.9l14.3,5.2v6.9
		c0,3.5,0.7,6.2,2.1,8.1c1.4,1.9,3.3,3.3,5.7,4.2c2.4,0.9,4.3,0.9,5.7,0c1.4-0.9,2.1-3,2.1-6.5c0-3.3-0.7-6.5-2.2-9.6
		c-1.5-3.1-3.3-6.1-5.5-9.2c-2.2-3.1-4.6-6.2-7.1-9.3s-4.9-6.5-7.1-10c-2.2-3.5-4-7.2-5.5-11.1C635.9,223.1,635.2,218.9,635.2,214.3
		z"/>
</g>
<g>
	<path class="st0" d="M78,106.9l46.9-17.1v13.8l-15.9,5.8V192l-15.2,5.5v-82.7L78,120.6V106.9z"/>
	<path class="st0" d="M146.6,178.4l-15.2,5.5V87.4l15.2-5.5v41.4l17.2-6.3V75.6l15.4-5.6v96.5l-15.4,5.6v-41.4l-17.2,6.3V178.4z"/>
	<path class="st0" d="M205.4,101.1l20.8-7.6v13.8l-20.8,7.6v28.3l26.2-9.5v13.8l-41.3,15V66l41.3-15v13.8l-26.2,9.5V101.1z"/>
</g>
<polygon class="st0" points="244.6,167.4 100.6,216.1 374.6,315.8 394.4,308.8 140.9,216.5 244.5,181.5 631.2,320.3 526.1,356.8
	467.4,335.4 447.7,342.5 526,371 671.3,320.5 "/>
</svg>
